<svg width="173" height="46" viewBox="0 0 173 46" fill="none" xmlns="http://www.w3.org/2000/svg">
<line y1="-1" x2="172.003" y2="-1" transform="matrix(-0.999983 -0.00581386 0.00549004 -0.999985 173 39)" stroke="#3D3D3D" stroke-width="2"/>
<line y1="-1" x2="172.003" y2="-1" transform="matrix(-0.999983 -0.00581385 0.00549004 -0.999985 173 1)" stroke="#3D3D3D" stroke-width="2"/>
<line y1="-1" x2="172.003" y2="-1" transform="matrix(-0.999983 -0.00581386 0.00549004 -0.999985 173 44)" stroke="#3D3D3D" stroke-width="2"/>
<line y1="-1" x2="172.003" y2="-1" transform="matrix(-0.999983 -0.00581386 0.00549004 -0.999985 173 6)" stroke="#3D3D3D" stroke-width="2"/>
<path d="M12.3033 21.14H24.3993V25.82H12.3033V21.14ZM12.7353 35H6.90325V9.8H25.9473V14.48H12.7353V35ZM29.8954 35V9.8H35.7274V35H29.8954ZM41.7079 35V9.8H46.5319L61.3999 27.944H59.0599V9.8H64.8199V35H60.0319L45.1279 16.856H47.4679V35H41.7079ZM76.0022 35V14.552H67.9382V9.8H89.8982V14.552H81.8342V35H76.0022ZM98.4001 19.952H110.532V24.488H98.4001V19.952ZM98.8321 30.32H112.548V35H93.0361V9.8H112.08V14.48H98.8321V30.32ZM129.248 35.432C127.304 35.432 125.492 35.12 123.812 34.496C122.156 33.848 120.716 32.936 119.492 31.76C118.268 30.584 117.308 29.204 116.612 27.62C115.94 26.036 115.604 24.296 115.604 22.4C115.604 20.504 115.94 18.764 116.612 17.18C117.308 15.596 118.268 14.216 119.492 13.04C120.74 11.864 122.192 10.964 123.848 10.34C125.504 9.692 127.316 9.368 129.284 9.368C131.468 9.368 133.436 9.752 135.188 10.52C136.964 11.264 138.452 12.368 139.652 13.832L135.908 17.288C135.044 16.304 134.084 15.572 133.028 15.092C131.972 14.588 130.82 14.336 129.572 14.336C128.396 14.336 127.316 14.528 126.332 14.912C125.348 15.296 124.496 15.848 123.776 16.568C123.056 17.288 122.492 18.14 122.084 19.124C121.7 20.108 121.508 21.2 121.508 22.4C121.508 23.6 121.7 24.692 122.084 25.676C122.492 26.66 123.056 27.512 123.776 28.232C124.496 28.952 125.348 29.504 126.332 29.888C127.316 30.272 128.396 30.464 129.572 30.464C130.82 30.464 131.972 30.224 133.028 29.744C134.084 29.24 135.044 28.484 135.908 27.476L139.652 30.932C138.452 32.396 136.964 33.512 135.188 34.28C133.436 35.048 131.456 35.432 129.248 35.432ZM160.871 9.8H166.703V35H160.871V9.8ZM149.423 35H143.591V9.8H149.423V35ZM161.303 24.668H148.991V19.736H161.303V24.668Z" fill="#3D3D3D"/>
</svg>
