<svg width="22" height="23" viewBox="0 0 22 23" fill="none" xmlns="http://www.w3.org/2000/svg">
<path d="M16.9301 10.4737C17.5426 16.1321 19.9474 17.8421 19.9474 17.8421H1C1 17.8421 4.15789 15.5965 4.15789 7.73684C4.15789 5.95012 4.82331 4.23658 6.00775 2.97318C7.19219 1.70977 8.79863 1 10.4737 1C10.8287 1 11.1807 1.03189 11.5263 1.0942" stroke="#3D3D3D" stroke-width="1.5" stroke-linecap="round" stroke-linejoin="round"/>
<path d="M17.8421 7.31579C19.5862 7.31579 21 5.90195 21 4.15789C21 2.41384 19.5862 1 17.8421 1C16.098 1 14.6842 2.41384 14.6842 4.15789C14.6842 5.90195 16.098 7.31579 17.8421 7.31579Z" stroke="#3D3D3D" stroke-width="1.5" stroke-linecap="round" stroke-linejoin="round"/>
<path d="M12.2947 21C12.1096 21.3191 11.8441 21.5839 11.5244 21.7679C11.2048 21.952 10.8425 22.0489 10.4736 22.0489C10.1048 22.0489 9.74248 21.952 9.4229 21.7679C9.10332 21.5839 8.83764 21.3191 8.65259 21" stroke="#3D3D3D" stroke-width="1.5" stroke-linecap="round" stroke-linejoin="round"/>
</svg>
